<svg width="32" height="27" viewBox="0 0 32 27" fill="none" xmlns="http://www.w3.org/2000/svg">
<path d="M16.9412 5.57178H15.0588V7.42903H16.9412V5.57178Z" fill="black"/>
<path d="M1.88235 5.57178H0V11.1435H1.88235V5.57178Z" fill="black"/>
<path d="M18.8235 3.71454H16.9412V5.57179H18.8235V3.71454Z" fill="black"/>
<path d="M20.7059 1.8573H18.8235V3.71455H20.7059V1.8573Z" fill="black"/>
<path d="M26.3529 0H20.7059V1.85728H26.3529V0Z" fill="black"/>
<path d="M28.2353 1.8573H26.3529V3.71455H28.2353V1.8573Z" fill="black"/>
<path d="M30.1176 3.71454H28.2353V5.57179H30.1176V3.71454Z" fill="black"/>
<path d="M3.76471 3.71454H1.88235V5.57179H3.76471V3.71454Z" fill="black"/>
<path d="M5.64706 1.8573H3.76471V3.71455H5.64706V1.8573Z" fill="black"/>
<path d="M11.2941 0H5.64706V1.85728H11.2941V0Z" fill="black"/>
<path d="M13.1765 1.8573H11.2941V3.71455H13.1765V1.8573Z" fill="black"/>
<path d="M15.0588 3.71454H13.1765V5.57179H15.0588V3.71454Z" fill="black"/>
<path d="M32 5.57178H30.1176V11.1435H32V5.57178Z" fill="black"/>
<path d="M30.1176 11.1436H28.2353V13.0008H30.1176V11.1436Z" fill="black"/>
<path d="M28.2353 13.0008H26.3529V14.8581H28.2353V13.0008Z" fill="black"/>
<path d="M26.3529 14.8581H24.4706V16.7153H26.3529V14.8581Z" fill="black"/>
<path d="M24.4706 16.7153H22.5882V18.5726H24.4706V16.7153Z" fill="black"/>
<path d="M22.5882 18.5726H20.7059V20.4298H22.5882V18.5726Z" fill="black"/>
<path d="M20.7059 20.4298H18.8235V22.2871H20.7059V20.4298Z" fill="black"/>
<path d="M18.8235 22.2871H16.9412V24.1444H18.8235V22.2871Z" fill="black"/>
<path d="M16.9412 24.1443H15.0588V26.0016H16.9412V24.1443Z" fill="black"/>
<path d="M3.76471 11.1436H1.88235V13.0008H3.76471V11.1436Z" fill="black"/>
<path d="M5.64706 13.0008H3.76471V14.8581H5.64706V13.0008Z" fill="black"/>
<path d="M7.52941 14.8581H5.64706V16.7153H7.52941V14.8581Z" fill="black"/>
<path d="M9.41177 16.7153H7.52941V18.5726H9.41177V16.7153Z" fill="black"/>
<path d="M11.2941 18.5726H9.41177V20.4298H11.2941V18.5726Z" fill="black"/>
<path d="M13.1765 20.4298H11.2941V22.2871H13.1765V20.4298Z" fill="black"/>
<path d="M15.0588 22.2871H13.1765V24.1444H15.0588V22.2871Z" fill="black"/>
</svg>
